<?xml version="1.0" encoding="UTF-8"?>
<svg width="752pt" height="752pt" version="1.1" viewBox="0 0 752 752" xmlns="http://www.w3.org/2000/svg">
 <path d="m219.25 248.13c-1.8945 0.94531-0.94531 3.7891 1.4219 3.7891l149.18-17.996c0.94531 0 1.8945-0.94531 1.8945-1.8945v-67.246c0-1.4219-1.4219-2.3672-2.3672-1.8945-2.3672 0.47266-4.2617 1.4219-6.6289 2.8398zm35.52 184.23c0.47266 1.4219 2.8398 1.4219 3.3164 0l107.5-186.12c0.94531-1.4219-0.47266-3.3164-1.8945-2.8398l-164.8 19.891c-3.3164 0.47266-6.1562 2.3672-8.0508 5.2109-1.4219 2.8398-1.8945 6.6289-0.47266 9.4727zm-6.6328 12.785c0.94531-0.47266 1.4219-1.4219 0.94531-2.3672l-57.773-139.23c-0.94531-1.8945-3.7891-1.4219-3.7891 0.94531v164.8c0 2.3672 0.47266 4.7344 0.94531 7.1055 0.47266 1.4219 1.8945 1.8945 2.8398 1.4219zm95.191 129.29c1.8945 0.94531 3.7891-0.94531 2.3672-2.8398l-90.453-118.39c-0.47266-0.94531-1.4219-0.94531-2.3672-0.47266l-56.832 32.199c-0.94531 0.47266-1.4219 2.3672-0.47266 3.3164 1.4219 1.8945 3.3164 3.3164 5.6836 4.2617zm32.676 14.68h0.47266c2.8398 0 6.1562-1.4219 8.0508-4.2617l100.4-131.18c0.94531-1.4219 0-3.3164-1.4219-3.3164l-215 0.003907c-1.4219 0-2.3672 1.8945-1.4219 3.3164l100.4 131.18c1.8945 2.3672 4.7344 4.2617 8.0508 4.2617zm120.77-135.92-90.453 118.39c-1.4219 1.8945 0.47266 3.7891 2.3672 2.8398l142.55-82.402c1.8945-0.94531 3.7891-2.3672 5.6836-4.2617 0.94531-0.94531 0.47266-2.3672-0.47266-3.3164l-56.828-32.203c-1.4258 0-2.3711 0.47656-2.8438 0.94922zm7.1016-8.0508 56.832 32.203c0.94531 0.47266 2.3672 0 2.8398-1.4219 0.47266-2.3672 0.94531-4.7344 0.94531-7.1055l0.003906-164.8c0-1.8945-2.8398-2.8398-3.7891-0.94531l-57.777 139.71c-0.47266 0.47266 0 1.8945 0.94531 2.3672zm-9.9453-12.312c0.94531 1.4219 2.8398 1.4219 3.3164 0l64.406-153.91c1.4219-2.8398 0.94531-6.6289-0.47266-9.4727-1.8945-2.8398-4.7344-4.7344-8.0508-5.2109l-164.8-20.836c-1.4219 0-2.8398 1.4219-1.8945 2.8398zm-111.77-198.91 149.18 17.996c1.8945 0.47266 2.8398-2.3672 1.4219-3.7891l-143.5-82.402c-1.8945-1.418-3.7891-2.3672-6.1562-2.8398-1.4219-0.47266-2.3672 0.47266-2.3672 1.8945v66.773c-0.47656 1.4219 0.47266 1.8945 1.418 2.3672zm102.77 202.7-106.55-184.7c-0.94531-1.8945-3.7891-1.8945-4.7344 0l-106.56 184.7c-0.94531 1.8945 0.47266 4.2617 2.3672 4.2617h213.59c1.8945 0 2.8398-2.3672 1.8945-4.2617zm-140.18-26.996h26.047v12.312h-39.781v-10.891c0-25.574 26.992-29.836 26.992-54.934 0-8.0508-2.8398-9.9453-7.1055-9.9453-4.2617 0-7.1055 2.3672-7.1055 8.5234v9.4727h-12.785v-8.5234c0-13.734 7.1055-21.785 20.363-21.785 13.262 0 20.363 8.0508 20.363 21.785 0 27.469-27.469 37.414-27.469 52.094 0.48047 0.46875 0.48047 0.94531 0.48047 1.8906zm76.246-8.5234c0 13.734-7.5781 21.785-20.836 21.785-13.262 0-20.836-8.0508-20.836-21.785v-45.465c0-13.734 7.5781-21.785 20.836-21.785 13.262 0 20.836 8.0508 20.836 21.785zm-13.734-46.41v46.883c0 6.1562-2.8398 8.5234-7.1055 8.5234-4.2617 0-7.1055-2.3672-7.1055-8.5234v-46.883c0-6.1562 2.8398-8.5234 7.1055-8.5234 4.2656-0.003907 7.1055 2.3672 7.1055 8.5234z" fill="#ff001b"/>
</svg>
